# xmcd
#
# Track frame offsets: 
#        150
#        10331
#        23856
#        37668
#        50802
#        69176
#        83591
#        93444
#        96466
#        108793
#        131338
#        150190
#        162794
#        179061
#        194088
#
# Disc length: 2648 seconds
#
# Revision: 0
# Processed by: cddbd v1.5.2PL0 Copyright (c) Steve Scherf et al.
# Submitted via: ExactAudioCopyFreeDBPlugin 1.0
#
DISCID=b50a560f
DTITLE=The Sweetback Sisters - The Sweetback Sisters' Country Christma
DTITLE=s Singalong Spectacular
DYEAR=2012
DGENRE=Christmas
TTITLE0=The Christmas Boogie
TTITLE1=Santa Claus Is Coming To Town
TTITLE2=Walking In A Winter Wonderland
TTITLE3=Nine Days Of Christmas
TTITLE4=Beautiful Star Of Bethlehem
TTITLE5=Silver Bells
TTITLE6=Rocking Around The Christmas Tree
TTITLE7=Hark! The Herald Angels Sing
TTITLE8=It's Beginning To Look A Lot Like Christmas
TTITLE9=The Twelve Days Of Christmas
TTITLE10=Christmas Island
TTITLE11=Happy Birthday, Merry Christmas And Happy New Year
TTITLE12=Have Yourself A Merry Little Christmas
TTITLE13=Must Be Santa
TTITLE14=Santa Claus Got Stuck In My Chimney
EXTD=
EXTT0=
EXTT1=
EXTT2=
EXTT3=
EXTT4=
EXTT5=
EXTT6=
EXTT7=
EXTT8=
EXTT9=
EXTT10=
EXTT11=
EXTT12=
EXTT13=
EXTT14=
PLAYORDER=
